<?xml version="1.0" encoding="UTF-8"?>
<!DOCTYPE svg PUBLIC "-//W3C//DTD SVG 1.1//EN" "http://www.w3.org/Graphics/SVG/1.1/DTD/svg11.dtd">
<!-- Creator: CorelDRAW 2021 (64-Bit) -->
<svg xmlns="http://www.w3.org/2000/svg" xml:space="preserve" width="8.26772in" height="11.6929in" version="1.1" style="shape-rendering:geometricPrecision; text-rendering:geometricPrecision; image-rendering:optimizeQuality; fill-rule:evenodd; clip-rule:evenodd"
viewBox="0 0 8267.72 11692.91"
 xmlns:xlink="http://www.w3.org/1999/xlink"
 xmlns:xodm="http://www.corel.com/coreldraw/odm/2003">
 <defs>
  <style type="text/css">
   <![CDATA[
    .fil0 {fill:#231E20}
    .fil1 {fill:#F49423}
   ]]>
  </style>
 </defs>
 <g id="Layer_x0020_1">
  <metadata id="CorelCorpID_0Corel-Layer"/>
  <g id="_1738683116800">
   <path class="fil0" d="M4379.54 5732.76c60.59,-44.39 76.54,-121.12 121.55,-193.25 121.7,-195.06 288.64,-376.09 478.46,-507.89 296.94,-206.17 646.01,-285.22 1036.93,-285.22 -25.82,22.44 -33.76,31.14 -77.15,48.76 -36.3,14.74 -89.66,24.41 -116.06,30.84 -92.2,22.44 -130.93,49.93 -205.52,67.3 76.43,104.32 95.33,-16.47 396.48,86.21 63.69,21.72 99.26,35.12 163.78,67.07 256.43,127 489.07,422.04 489.07,728.15 0,330.93 -47.7,561.76 -222.07,827.25 -66.13,100.69 -116.19,159.64 -188.52,252.2 -76.84,98.35 -139.8,153.64 -198.02,263.68 260.4,-21.67 1185.8,-803.05 926.55,-1577.13 -23.49,-70.13 -53.81,-113.33 -85.52,-166.31 -84.77,-141.69 -256.78,-310.43 -407.63,-389.87 -69.59,-36.65 -96.94,-46.87 -145.68,-106.15 -74.07,-90.08 -77.87,-169.26 -77.87,-278.9 0,-291.05 293.81,-409.5 293.81,-776.5 0,-152.56 -55.38,-316.46 -146.91,-377.76 -89.5,186.54 56.36,500.07 -820.93,816.02 -245.87,88.54 -521.78,208.92 -723.43,367.85 -201.39,158.74 -394.38,366.86 -461.46,629.84 -35.78,140.29 -57.67,354.5 -29.87,473.8z"/>
   <path class="fil0" d="M2154.97 3843.98c0,319.75 293.81,484.14 293.81,797.48 0,137.06 -82.43,254.95 -171.03,311.65 -197.74,126.54 -340.85,182.64 -496.61,468.76 -32.66,59.99 -53.57,104.63 -72.02,179.81 -109.41,445.69 126.54,860.13 418.89,1165.37 92.08,96.15 365.37,317.18 509.65,350.79 -7.15,-85.84 -35.3,-87.02 -83.64,-147.21 -266.82,-332.26 -524.96,-621.36 -524.96,-1111.97 0,-527.13 485.65,-900.29 840.18,-922.69 118.68,-7.5 176.19,30.93 230.13,-42.7l-321.24 -98.49c-25.24,-9.04 -24.39,-8.93 -44.53,-18.43 -5.79,-2.73 -22.72,-11.87 -27.53,-14.44l-26.43 -15.54c747.62,0 1211.28,265.15 1576.98,878.43 41.08,68.9 39.91,72.09 80.94,86.95 0,-548.85 -116.83,-797.92 -518.45,-1097.5 -120.14,-89.62 -206.19,-137.18 -341.68,-203.96 -237.57,-117.12 -527.38,-182.98 -752.13,-318.18 -358.55,-215.7 -352.05,-361.48 -423.43,-667.87 -92.78,67.98 -146.91,253.81 -146.91,419.73z"/>
   <path class="fil0" d="M3770.93 6628.63c21.33,-9.98 47.8,-14.98 66.75,-52.7 48.58,-96.69 -73.64,35.84 -268.77,-74.5 -360.86,-204.07 -143.85,-794.69 297.52,-654.86 102.82,32.57 106.84,69.85 177.32,117.05l0 -58.32c-79.39,-147.58 -122,-557.22 -661.26,-644.31 -846.28,-136.67 -1204.22,972.63 -591.66,1389.19 334.5,227.46 670.3,190.93 980.09,-21.54z"/>
   <path class="fil0" d="M4673.35 5880.25l0 62.37c79.94,-21.35 67.86,-51.78 143.2,-87.7 492.03,-234.58 827.45,696.3 45.68,696.3l104.93 99.76c347.39,189.86 649.41,238.75 979.75,-22.11 586.01,-462.73 193.22,-1497.57 -612.94,-1368.5 -493.26,78.98 -559.93,439.85 -660.63,619.87z"/>
   <path class="fil1" d="M4673.35 5880.25c100.7,-180.02 167.37,-540.88 660.63,-619.87 806.16,-129.08 1198.94,905.76 612.94,1368.5 -330.35,260.86 -632.37,211.96 -979.75,22.11 45.02,77.96 121.63,118.51 216.62,166.3 740.68,372.64 1578.1,-386.44 1265.2,-1181.26 -271.67,-690.07 -1260.92,-826.32 -1691.39,-70.87 -36.9,64.76 -84.25,212.14 -84.25,315.08z"/>
   <path class="fil1" d="M3770.93 6628.63c-309.8,212.46 -645.6,249 -980.09,21.54 -612.56,-416.56 -254.62,-1525.86 591.66,-1389.19 539.26,87.09 581.87,496.73 661.26,644.31 0,-225.81 -128.81,-439.19 -246.27,-555.85 -88.91,-88.3 -100.69,-116.57 -222.03,-176.71 -97.42,-48.29 -178.74,-90.4 -291.96,-106.78 -271.73,-39.33 -501.05,32.04 -654.65,133.33 -95.26,62.81 -143.9,95.62 -213.49,185.26 -65.53,84.39 -109.04,140.86 -150.04,248.7 -90.52,238.17 -91.14,487.17 17.36,727.34 353.67,782.83 1310.42,587.27 1488.26,268.06z"/>
   <path class="fil0" d="M4253.61 7831.39c158.46,-106.11 140.9,-503.29 383.06,-771.19 40.47,-44.77 47.95,-60.32 84.92,-103.96 41.27,-48.72 63.83,-59.22 98.65,-111.22 -244.64,20.36 52.11,104.93 -713.54,104.93 -121.6,0 -317.33,-140.41 -342,-79.38 -15.64,38.71 144.88,225.98 182.68,280.67 153.92,222.7 236.67,381.59 306.22,680.14z"/>
  </g>
 </g>
</svg>
